<?xml version="1.0" encoding="UTF-8"?>
<svg width="128px" height="128px" viewBox="0 0 128 128" version="1.1" xmlns="http://www.w3.org/2000/svg" xmlns:xlink="http://www.w3.org/1999/xlink">
    <title>Categories</title>
    <defs>
        <linearGradient x1="19.4299207%" y1="137.756608%" x2="100%" y2="-36.8920375%" id="linearGradient-1">
            <stop stop-color="#AE68FF" offset="0%"></stop>
            <stop stop-color="#7991FF" offset="100%"></stop>
        </linearGradient>
    </defs>
    <g id="E-commerce-icons" stroke="none" stroke-width="1" fill="none" fill-rule="evenodd">
        <g transform="translate(-1022.000000, -412.000000)" id="Categories">
            <g transform="translate(1022.000000, 412.000000)">
                <rect id="Rectangle" fill-opacity="0" fill="#FFFFFF" x="0" y="0" width="128" height="128"></rect>
                <path d="M106.666667,5.33333333 C115.503223,5.33333333 122.666667,12.4967773 122.666667,21.3333333 L122.666667,21.3333333 L122.666667,106.666667 C122.666667,115.503223 115.503223,122.666667 106.666667,122.666667 L106.666667,122.666667 L21.3333333,122.666667 C12.4967773,122.666667 5.33333333,115.503223 5.33333333,106.666667 L5.33333333,106.666667 L5.33333333,21.3333333 C5.33333333,12.4967773 12.4967773,5.33333333 21.3333333,5.33333333 L21.3333333,5.33333333 Z M112,42.6666667 L16,42.6666667 L16,106.666667 C16,109.612185 18.3878147,112 21.3333333,112 L21.3333333,112 L106.666667,112 C109.612185,112 112,109.612185 112,106.666667 L112,106.666667 L112,42.6666667 Z M96,85.3333333 L96,96 L53.3333333,96 L53.3333333,85.3333333 L96,85.3333333 Z M42.6666667,85.3333333 L42.6666667,96 L32,96 L32,85.3333333 L42.6666667,85.3333333 Z M96,58.6666667 L96,69.3333333 L53.3333333,69.3333333 L53.3333333,58.6666667 L96,58.6666667 Z M42.6666667,58.6666667 L42.6666667,69.3333333 L32,69.3333333 L32,58.6666667 L42.6666667,58.6666667 Z M106.666667,16 L21.3333333,16 C18.3878147,16 16,18.3878147 16,21.3333333 L16,21.3333333 L16,32 L112,32 L112,21.3333333 C112,18.3878147 109.612185,16 106.666667,16 L106.666667,16 Z" fill="url(#linearGradient-1)"></path>
            </g>
        </g>
    </g>
</svg>