<?xml version="1.0" encoding="UTF-8"?>
<svg width="128px" height="128px" viewBox="0 0 128 128" version="1.1" xmlns="http://www.w3.org/2000/svg" xmlns:xlink="http://www.w3.org/1999/xlink">
    <title>Person</title>
    <defs>
        <linearGradient x1="24.7354716%" y1="137.756608%" x2="91.322314%" y2="-36.8920375%" id="linearGradient-1">
            <stop stop-color="#AE68FF" offset="0%"></stop>
            <stop stop-color="#7991FF" offset="100%"></stop>
        </linearGradient>
    </defs>
    <g id="E-commerce-icons" stroke="none" stroke-width="1" fill="none" fill-rule="evenodd">
        <g transform="translate(-736.000000, -412.000000)" id="Person">
            <g transform="translate(736.000000, 412.000000)">
                <rect id="Rectangle" fill-opacity="0" fill="#FFFFFF" x="0" y="0" width="128" height="128"></rect>
                <path d="M64.0316894,69.3333333 C97.2445478,69.3333333 117.333333,81.6200187 117.333333,101.333333 C117.333333,104.591874 117.260755,106.489447 116.925957,108.851222 C115.771656,116.994032 111.808581,122.666667 103.83363,122.666667 L103.83363,122.666667 L24.2297485,122.666667 C16.2317914,122.666667 12.2405841,116.99776 11.0776053,108.856915 C10.7398636,106.492726 10.6666667,104.593712 10.6666667,101.333333 C10.6666667,81.6138317 30.765502,69.3333333 64.0316894,69.3333333 Z M64.0316894,80 C35.8983738,80 21.3333333,88.8993195 21.3333333,101.333333 C21.3333333,104.107578 21.3921761,105.63419 21.6370663,107.34842 C22.1424023,110.885768 22.92688,112 24.2297485,112 L24.2297485,112 L103.83363,112 C105.087878,112 105.86371,110.889496 106.364875,107.354113 C106.538694,106.127938 106.618176,104.997984 106.649404,103.4407 L106.649404,103.4407 L106.666667,101.333333 C106.666667,88.9024219 92.1111669,80 64.0316894,80 Z M64,5.33333333 C78.6058331,5.33333333 90.6666667,16.9081384 90.6666667,31.706422 C90.6666667,46.6833855 78.6143965,58.6666667 64,58.6666667 C49.4410801,58.6666667 37.3333333,46.6866812 37.3333333,31.8042813 C37.3333333,17.0646681 49.4387821,5.33333333 64,5.33333333 Z M64,16 C55.2561883,16 48,23.0319387 48,31.8042813 C48,40.7701662 55.3069368,48 64,48 C72.737023,48 80,40.7785973 80,31.706422 C80,22.8995664 72.8107193,16 64,16 Z" fill="url(#linearGradient-1)"></path>
            </g>
        </g>
    </g>
</svg>